<svg version="1" xmlns="http://www.w3.org/2000/svg" viewBox="0 0 512 512">
  <path d="M502 207h-82v-22c0-5-4-10-10-10H194a10 10 0 0 0 0 20h206v77c0 67-36 130-94 164H114c-58-34-94-97-94-164v-77h67a10 10 0 0 0 0-20H10c-6 0-10 5-10 10v87a210 210 0 0 0 79 164H10c-6 0-10 4-10 10 0 36 30 66 66 66h312c36 0 66-30 66-66 0-6-4-10-10-10h-93c18-15 34-32 46-52h29c53 0 96-43 96-96v-71c0-6-4-10-10-10zm-79 249c-5 21-23 36-45 36H66c-22 0-40-15-45-36h402zm-3-184v-5h32v21c0 20-16 36-36 36h-3c5-17 7-34 7-52zm72 16c0 42-34 76-76 76h-17l8-20h9c31 0 56-25 56-56v-31c0-6-4-10-10-10h-42v-20h72v61zM220 55l-6-6c-7-10-7-23 0-33a10 10 0 1 0-15-12 46 46 0 0 0 0 57l5 7c10 12 10 30 0 42l-5 7a10 10 0 1 0 15 13l6-7c15-20 15-48 0-68zM275 78l-5-7c-8-9-8-23 0-32a10 10 0 1 0-16-13 46 46 0 0 0 0 58l5 6c10 13 10 30 0 43l-5 7a10 10 0 1 0 16 12l5-7c16-20 16-47 0-67zM164 78l-5-7c-8-9-8-23 0-32a10 10 0 1 0-16-13 46 46 0 0 0 0 58l5 6c10 13 10 30 1 43l-6 7a10 10 0 1 0 16 12l5-7c16-20 16-47 0-67z"/>
  <path d="M150 178c-2-2-4-3-7-3s-5 1-7 3-3 5-3 7 1 6 3 7c2 2 5 3 7 3s5-1 7-3a10 10 0 0 0 0-14zM362 262c-6 0-10 4-10 10 0 37-15 74-41 100a10 10 0 1 0 14 14c30-30 47-72 47-114 0-6-4-10-10-10zM294 399c-3-5-9-6-14-4v1a10 10 0 0 0 10 17c5-3 7-9 4-14z"/>
</svg>
