<svg version="1" xmlns="http://www.w3.org/2000/svg" viewBox="0 0 512 512">
  <path d="M480 429h-73a7 7 0 1 0 0 15h65v4l-109 21H144L35 448v-4h264c1 0 0 0 0 0h80a7 7 0 1 0 0-15h-48a146 146 0 0 0 51-57 80 80 0 1 0 16-152v-4c0-10-8-18-17-18h-36a7 7 0 1 0 0 15h36c1 0 2 1 2 3v13H124v-13c0-2 1-3 2-3h192a7 7 0 1 0 0-15H126c-9 0-17 8-17 18v90c0 12 1 23 4 34-12-4-27-1-40 8a7 7 0 1 0 8 12c9-6 18-8 26-6l-28 41a7 7 0 0 0 13 8l27-41c3 4 4 10 4 16 1 10-3 21-9 30a59 59 0 0 1-24 21H67l-1-1c-13-8-13-30-2-49a8 8 0 0 0-13-8c-7 12-11 26-10 39 1 7 2 13 6 19H27c-4 0-7 3-7 7v18c0 4 2 7 6 7l110 21v22c0 5 4 8 8 8h219c4 0 8-3 8-8v-22l110-21c4 0 6-3 6-7v-18c0-4-3-7-7-7zm-82-123v-35c5-2 9-4 14-4a31 31 0 1 1-15 58l1-19zm-4 35l18 3a46 46 0 1 0-14-89v-20a65 65 0 1 1-9 124l5-18zm-270-97h259v62a129 129 0 0 1-86 123h-87l-7-3c5-9 7-19 6-28-3-12-11-22-24-27a69 69 0 0 0-46-4c-10-18-15-39-15-61v-62zm2 173c7-11 11-22 12-34l8-2c19-4 38 2 45 13l-48 10a8 8 0 1 0 3 14l48-9c-1 5-4 10-8 14l-7 6h-63l10-12zm230 80H151v-13h205v13zM273 150zM273 150zM289 82a51 51 0 0 0-8-81 7 7 0 1 0-8 13 36 36 0 0 1 0 62c-4 2-4 9 0 12a36 36 0 0 1 0 62 7 7 0 0 0 8 13 51 51 0 0 0 8-81zm-12 65zm-1 1h1-1zM334 76a7 7 0 1 0-8 12 36 36 0 0 1 0 62 7 7 0 0 0 8 13 51 51 0 0 0 0-87zM224 76a7 7 0 1 0-8 12 36 36 0 0 1 0 62 7 7 0 0 0 8 13 51 51 0 0 0 0-87z"/>
</svg>
