<svg viewBox="0 0 512 512" xmlns="http://www.w3.org/2000/svg">
  <path d="M277 484a30 30 0 0 0 30-25l19-106c58-29 114-66 171-98a30 30 0 0 0 11-41l-46-81c-7-11-24-1-18 11l47 80c2 5 1 11-4 13l-170 98c-4 3-10 1-13-3l-98-170c-3-5-1-11 3-13l170-98c5-3 11-1 13 3l13 21c6 12 24 1 17-10l-12-21a30 30 0 0 0-41-11L267 92l-20-70c-5-16-22-25-38-21L22 56A30 30 0 0 0 1 94l55 187c3 10 10 17 19 20L55 413c-3 17 8 32 24 35zM76 275L21 88c-2-5 1-11 6-12l188-55c5-2 11 1 12 6l22 75-50 29a30 30 0 0 0-10 41l23 41-87-16c-16-3-32 8-35 24l-11 60c-2-2-3-3-3-6zm211 180c-1 6-6 9-12 8L83 429c-5-1-9-7-8-12l35-192c1-6 6-9 12-8l103 19 62 106c4 7 10 12 18 14zm0 0"/>
  <path d="M106 83c-2-6-8-9-13-7L50 88c-5 2-8 8-7 13l11 37c4 12 23 6 19-6l-8-27 34-10c5-1 8-7 7-12zm0 0M273 392c-6-1-11 2-12 8l-5 27-33-6c-12-3-16 17-3 19l43 8c5 1 10-3 11-8l7-37c1-5-3-10-8-11zm0 0M423 103c-1 5 1 9 5 11 3 2 8 2 11-1 7-6 3-17-6-18-5 0-9 4-10 8zm0 0M288 358c-2-4-6-6-11-6-4 0-7 3-8 8-3 8 7 15 14 11 5-3 6-8 5-13zm0 0"/>
</svg>
