<svg version="1" xmlns="http://www.w3.org/2000/svg" viewBox="0 0 512 512">
  <path d="M341 277v-79c0-27-13-53-36-68a61 61 0 0 1-28-51V64c6 0 11-5 11-11V11c0-6-5-11-11-11H149c-6 0-10 5-10 11v42c0 6 4 11 10 11v15c0 20-10 39-27 51a82 82 0 0 0-37 68v271c0 24 19 43 43 43h213c54 0 86-29 86-76 0-70-53-159-86-159zM160 21h107v22H160V21zm-26 127c23-16 37-41 37-69V64h85v15c0 28 14 53 37 69 17 11 27 30 27 50v5c-50-1-77-6-105-11-27-5-55-10-106-11 4-13 13-25 25-33zm-6 343c-12 0-21-10-21-22V203c50 0 77 5 104 10 28 5 57 10 109 11v63c-30 25-64 93-64 149 0 23 8 41 21 54l-149 1zm225-1c2-10 7-17 13-25 8-11 18-24 18-49a11 11 0 1 0-21 0c0 18-6 26-14 36-7 10-15 21-17 38-27-2-55-14-55-54 0-66 50-136 64-137 0 20-6 30-14 42s-18 26-18 54a11 11 0 1 0 22 0c0-21 6-31 14-42 6-10 13-20 16-37 20 25 44 74 44 120 0 39-26 52-52 54z"/>
</svg>
