<svg height="683" viewBox="0 0 512 512" width="683" xmlns="http://www.w3.org/2000/svg">
  <path d="M256 0a256 256 0 1 0 0 512 256 256 0 0 0 0-512zm0 495a239 239 0 1 1 0-478 239 239 0 0 1 0 478zm0 0"/>
  <path d="M256 34c-52 0-103 19-143 53s-1 0-1 0v1l-2 5v3l1 2 1 1 70 69a9 9 0 1 0 12-12l-63-62a204 204 0 0 1 287 287l-54-54a9 9 0 0 0-12 12l61 61 3 2h6l1-1 2-1v-1A222 222 0 0 0 256 34zm0 0M403 416v-1l-1-2-1-1-79-77a9 9 0 0 0-12 12l72 70A204 204 0 0 1 95 130l54 54a9 9 0 1 0 12-12l-61-61-2-1-1-1h-2-3l-1 1-2 1h-1v1a222 222 0 0 0 312 312h1v-1l1-2 1-3v-2zm0 0"/>
  <path d="M392 168l-2-2v-1l-3-2-76-34h-1-3-3l-77 34a8 8 0 0 0-3 3l-1 2h-1v31l-22-10-4-1-1 1a9 9 0 0 0-2 0l-77 34a8 8 0 0 0-3 2l-1 2v1l-1 3v103l1 4 1 1 2 2h1l77 34 3 1 3-1h1l76-34h1l2-2 1-1 1-1v-3l1-1v-27l22 10h7l76-34v-1h1l2-1 1-2 1-1v-2l1-1V171l-1-3zm-76 43l59-27v84l-59 27zm-9-64l56 24-56 25-56-25zm-111 59l31 14 25 11-56 25-56-25zm69 86v36l-60 26v-83l60-27zm-137-48l60 27v83l-60-26zm154-13l-1-4-2-2-2-2h-1l-37-16v-23l60 27v84l-17-8zm0 0"/>
</svg>
