<svg height="640" viewBox="0 -88 480 480" width="640" xmlns="http://www.w3.org/2000/svg">
  <path d="M104 32c-22 0-44 8-61 22a8 8 0 1 0 10 12c15-11 33-18 51-18 23 0 40 13 40 24a8 8 0 0 0 16 0c0-22-26-40-56-40zm0 0"/>
  <path d="M104 0C56 0 0 31 0 72s56 72 104 72c37 0 70-19 83-47l293 7V40l-293 8c-13-29-46-48-83-48zm360 88l-288-8-2 6c-9 25-37 42-70 42-40 0-88-26-88-56s48-56 88-56c33 0 61 17 70 42l2 6 288-8zm0 0M48 176h16v16H48zm0 0M64 192h16v16H64zm0 0M64 224h16v16H64zm0 0M96 208h16v16H96zm0 0M48 256h16v16H48zm0 0M64 288h16v16H64zm0 0M112 272h16v16h-16zm0 0M112 160h16v16h-16zm0 0"/>
</svg>
