<svg height="681" viewBox="1 -23 512 511" width="681" xmlns="http://www.w3.org/2000/svg">
  <path d="M127 130c0 10 4 20 12 28a9 9 0 0 0 12 0c3-4 3-9 0-12a22 22 0 0 1 0-32 39 39 0 0 0 0-55 9 9 0 1 0-12 12 22 22 0 0 1 0 31c-8 8-12 17-12 28zm0 0M315 130c0 10 4 20 11 28a9 9 0 0 0 12 0c4-4 4-9 0-12a22 22 0 0 1 0-32 39 39 0 0 0 0-55 9 9 0 1 0-12 12 22 22 0 0 1 0 31c-7 8-11 17-11 28zm0 0M217 97c0 13 5 26 15 35a9 9 0 0 0 12 0c3-3 3-9 0-12a33 33 0 0 1 0-46 50 50 0 0 0 0-71 9 9 0 1 0-12 12 33 33 0 0 1 0 47c-10 9-15 22-15 35zm0 0M401 333c63 0 111-44 111-102 0-5-4-9-9-9h-77l1-17c0-4-4-8-9-8H188v-9a9 9 0 1 0-17 0v9H60c-5 0-9 4-9 8 0 83 25 149 71 188H9c-5 0-9 4-9 9 0 13 61 35 62 35 35 13 94 28 177 28 159 0 232-54 235-57a9 9 0 0 0-5-15H355c19-16 34-36 46-60zm94-94c-5 43-39 74-87 77 9-23 15-48 17-77zM239 448c-101 0-166-22-199-38h396c-33 16-98 38-197 38zm-88-55c-52-32-81-96-83-179h103v17h-17c-5 0-9 4-9 8v64c0 5 4 9 9 9h51c5 0 8-4 8-9v-64c0-4-3-8-8-8h-17v-17h222c-2 83-32 147-83 179zm45-145v47h-34v-47zm0 0"/>
</svg>
